<?xml version="1.0" standalone="no"?>
<!DOCTYPE svg PUBLIC "-//W3C//DTD SVG 20010904//EN"
 "http://www.w3.org/TR/2001/REC-SVG-20010904/DTD/svg10.dtd">
<svg version="1.0" xmlns="http://www.w3.org/2000/svg"
 width="1024.000000pt" height="1024.000000pt" viewBox="0 0 1024.000000 1024.000000"
 preserveAspectRatio="xMidYMid meet">
<metadata>
Created by potrace 1.14, written by Peter Selinger 2001-2017
</metadata>
<g transform="translate(0.000000,1024.000000) scale(0.100000,-0.100000)"
fill="#000000" stroke="none">
<path d="M2000 9193 c-61 -10 -196 -46 -207 -55 -7 -6 -13 -8 -13 -5 0 10
-133 -59 -200 -103 -68 -45 -198 -170 -240 -230 -13 -19 -27 -37 -30 -40 -10
-9 -30 -45 -68 -125 -52 -107 -54 -110 -66 -165 -5 -19 -11 -39 -15 -45 -3 -5
-6 -18 -7 -27 -1 -10 -2 -19 -4 -20 -9 -12 -12 -101 -15 -418 -3 -441 -15
-703 -40 -885 -3 -16 -7 -50 -10 -75 -3 -25 -7 -56 -9 -70 -2 -14 -7 -47 -11
-73 -4 -27 -9 -59 -11 -70 -8 -35 -13 -60 -19 -100 -6 -31 -36 -156 -80 -321
-19 -76 -83 -248 -111 -298 -7 -14 -14 -33 -14 -42 0 -9 -3 -16 -7 -16 -5 0
-19 -25 -32 -55 -14 -30 -28 -55 -32 -55 -4 0 -9 -8 -13 -17 -9 -27 -23 -49
-97 -143 -165 -210 -389 -336 -641 -359 -5 -1 -8 -118 -8 -261 0 -201 3 -260
13 -261 19 -1 58 -8 108 -20 26 -6 54 -11 63 -13 8 -1 19 -5 22 -9 4 -4 13 -7
20 -7 17 0 146 -61 162 -77 7 -7 20 -13 28 -13 8 0 14 -4 14 -8 0 -4 13 -15
28 -24 46 -27 156 -138 220 -223 26 -33 92 -135 92 -141 0 -4 10 -23 22 -43
13 -20 23 -38 23 -41 1 -3 13 -32 29 -64 37 -81 103 -263 128 -356 10 -38 28
-106 33 -130 9 -37 35 -158 40 -190 9 -51 14 -82 20 -109 5 -25 15 -101 20
-156 2 -16 6 -48 9 -70 6 -36 11 -94 22 -225 11 -147 17 -354 16 -645 0 -195
4 -352 10 -385 6 -30 12 -63 13 -72 0 -10 4 -21 8 -24 4 -4 7 -15 7 -25 0 -10
5 -30 12 -46 6 -15 12 -33 13 -38 10 -43 109 -225 128 -233 4 -2 7 -9 7 -16 0
-22 180 -200 248 -245 73 -49 261 -138 295 -139 11 -1 58 -11 87 -20 14 -4
1427 -8 3140 -9 3107 -3 3115 -3 3205 18 50 11 95 22 100 24 6 1 21 6 35 11
36 11 180 84 214 108 38 27 70 52 115 93 20 18 39 33 44 33 4 0 7 7 7 15 0 8
4 15 9 15 11 0 111 131 137 180 11 19 23 38 27 41 5 3 8 9 8 13 -1 3 5 19 13
34 13 25 52 137 61 172 30 127 33 164 34 508 1 444 8 606 36 851 4 29 8 67 10
85 2 17 4 33 5 36 1 3 2 8 1 12 0 4 4 31 9 60 6 29 13 71 16 93 3 22 7 47 8
55 2 13 11 56 31 145 73 339 218 678 370 864 30 36 145 151 151 151 3 0 24 16
47 35 22 19 47 35 54 35 7 0 13 4 13 8 0 4 16 14 35 21 19 7 35 16 35 20 0 4
6 8 13 8 6 1 38 10 70 21 31 12 57 18 57 15 0 -3 6 -1 13 5 6 6 32 13 57 17
25 4 52 9 60 10 8 2 21 4 28 4 9 1 12 60 12 261 l0 259 -32 5 c-18 3 -46 8
-63 10 -16 3 -46 10 -65 16 -19 6 -44 13 -55 15 -52 11 -183 82 -255 138 -203
158 -347 387 -460 727 -30 90 -70 231 -75 265 -1 11 -3 20 -4 20 -3 0 -6 14
-15 60 -7 34 -13 69 -21 105 -2 14 -7 41 -10 60 -3 19 -8 42 -10 50 -2 8 -7
35 -9 60 -3 25 -8 63 -10 85 -24 191 -31 272 -42 495 -6 129 -8 340 -5 630 1
74 -1 146 -4 160 -3 14 -8 45 -11 70 -3 25 -8 54 -12 65 -3 11 -7 22 -7 25
-22 93 -77 213 -141 311 -60 91 -214 248 -284 288 -94 55 -140 79 -140 74 0
-3 -6 0 -14 6 -19 16 -160 59 -231 70 -58 9 -6209 13 -6265 4z"/>
</g>
</svg>
